<mxfile host="Electron" modified="2024-01-06T17:51:13.635Z" agent="Mozilla/5.0 (X11; Linux x86_64) AppleWebKit/537.36 (KHTML, like Gecko) draw.io/22.1.16 Chrome/120.0.6099.109 Electron/28.1.0 Safari/537.36" etag="KhwILmYJJKh0e5Irf_Pg" version="22.1.16" type="device">
  <diagram id="C5RBs43oDa-KdzZeNtuy" name="Page-1">
    <mxGraphModel dx="1364" dy="963" grid="1" gridSize="10" guides="1" tooltips="1" connect="1" arrows="1" fold="1" page="1" pageScale="1" pageWidth="827" pageHeight="1169" math="0" shadow="0">
      <root>
        <mxCell id="WIyWlLk6GJQsqaUBKTNV-0" />
        <mxCell id="WIyWlLk6GJQsqaUBKTNV-1" parent="WIyWlLk6GJQsqaUBKTNV-0" />
        <mxCell id="WIyWlLk6GJQsqaUBKTNV-2" value="" style="rounded=0;html=1;jettySize=auto;orthogonalLoop=1;fontSize=11;endArrow=block;endFill=0;endSize=8;strokeWidth=1;shadow=0;labelBackgroundColor=none;edgeStyle=orthogonalEdgeStyle;" parent="WIyWlLk6GJQsqaUBKTNV-1" source="WIyWlLk6GJQsqaUBKTNV-3" edge="1">
          <mxGeometry relative="1" as="geometry">
            <mxPoint x="220" y="170" as="targetPoint" />
          </mxGeometry>
        </mxCell>
        <mxCell id="WIyWlLk6GJQsqaUBKTNV-3" value="시작" style="rounded=1;whiteSpace=wrap;html=1;fontSize=12;glass=0;strokeWidth=1;shadow=0;" parent="WIyWlLk6GJQsqaUBKTNV-1" vertex="1">
          <mxGeometry x="160" y="80" width="120" height="40" as="geometry" />
        </mxCell>
        <mxCell id="WIyWlLk6GJQsqaUBKTNV-11" value="끝" style="rounded=1;whiteSpace=wrap;html=1;fontSize=12;glass=0;strokeWidth=1;shadow=0;" parent="WIyWlLk6GJQsqaUBKTNV-1" vertex="1">
          <mxGeometry x="160" y="1020" width="120" height="40" as="geometry" />
        </mxCell>
        <mxCell id="xLrs-v6zSwxmLyYTFF1L-8" value="" style="edgeStyle=orthogonalEdgeStyle;rounded=0;orthogonalLoop=1;jettySize=auto;html=1;" edge="1" parent="WIyWlLk6GJQsqaUBKTNV-1" source="xLrs-v6zSwxmLyYTFF1L-6" target="xLrs-v6zSwxmLyYTFF1L-7">
          <mxGeometry relative="1" as="geometry" />
        </mxCell>
        <mxCell id="xLrs-v6zSwxmLyYTFF1L-6" value="출근 &lt;br&gt;준비" style="shape=hexagon;perimeter=hexagonPerimeter2;whiteSpace=wrap;html=1;fixedSize=1;" vertex="1" parent="WIyWlLk6GJQsqaUBKTNV-1">
          <mxGeometry x="160" y="170" width="120" height="80" as="geometry" />
        </mxCell>
        <mxCell id="xLrs-v6zSwxmLyYTFF1L-12" value="" style="edgeStyle=orthogonalEdgeStyle;rounded=0;orthogonalLoop=1;jettySize=auto;html=1;" edge="1" parent="WIyWlLk6GJQsqaUBKTNV-1" source="xLrs-v6zSwxmLyYTFF1L-7" target="xLrs-v6zSwxmLyYTFF1L-11">
          <mxGeometry relative="1" as="geometry" />
        </mxCell>
        <mxCell id="xLrs-v6zSwxmLyYTFF1L-7" value="집 앞 &lt;br&gt;버스 정류장을 간다" style="rounded=0;whiteSpace=wrap;html=1;" vertex="1" parent="WIyWlLk6GJQsqaUBKTNV-1">
          <mxGeometry x="160" y="280" width="120" height="60" as="geometry" />
        </mxCell>
        <mxCell id="xLrs-v6zSwxmLyYTFF1L-14" value="" style="edgeStyle=orthogonalEdgeStyle;rounded=0;orthogonalLoop=1;jettySize=auto;html=1;" edge="1" parent="WIyWlLk6GJQsqaUBKTNV-1" source="xLrs-v6zSwxmLyYTFF1L-11" target="xLrs-v6zSwxmLyYTFF1L-13">
          <mxGeometry relative="1" as="geometry" />
        </mxCell>
        <mxCell id="xLrs-v6zSwxmLyYTFF1L-16" value="" style="edgeStyle=orthogonalEdgeStyle;rounded=0;orthogonalLoop=1;jettySize=auto;html=1;" edge="1" parent="WIyWlLk6GJQsqaUBKTNV-1" source="xLrs-v6zSwxmLyYTFF1L-11" target="xLrs-v6zSwxmLyYTFF1L-15">
          <mxGeometry relative="1" as="geometry" />
        </mxCell>
        <mxCell id="xLrs-v6zSwxmLyYTFF1L-11" value="버스 도착 시간 &amp;lt;= 20분" style="rhombus;whiteSpace=wrap;html=1;" vertex="1" parent="WIyWlLk6GJQsqaUBKTNV-1">
          <mxGeometry x="155" y="380" width="130" height="130" as="geometry" />
        </mxCell>
        <mxCell id="xLrs-v6zSwxmLyYTFF1L-32" style="edgeStyle=orthogonalEdgeStyle;rounded=0;orthogonalLoop=1;jettySize=auto;html=1;entryX=1;entryY=0.5;entryDx=0;entryDy=0;" edge="1" parent="WIyWlLk6GJQsqaUBKTNV-1" source="xLrs-v6zSwxmLyYTFF1L-13" target="xLrs-v6zSwxmLyYTFF1L-21">
          <mxGeometry relative="1" as="geometry">
            <Array as="points">
              <mxPoint x="390" y="585" />
            </Array>
          </mxGeometry>
        </mxCell>
        <mxCell id="xLrs-v6zSwxmLyYTFF1L-13" value="우체국 앞 &lt;br&gt;정류장까지 &lt;br&gt;걸어간다" style="whiteSpace=wrap;html=1;aspect=fixed;" vertex="1" parent="WIyWlLk6GJQsqaUBKTNV-1">
          <mxGeometry x="350" y="405" width="80" height="80" as="geometry" />
        </mxCell>
        <mxCell id="xLrs-v6zSwxmLyYTFF1L-31" style="edgeStyle=orthogonalEdgeStyle;rounded=0;orthogonalLoop=1;jettySize=auto;html=1;entryX=0;entryY=0.5;entryDx=0;entryDy=0;" edge="1" parent="WIyWlLk6GJQsqaUBKTNV-1" source="xLrs-v6zSwxmLyYTFF1L-15" target="xLrs-v6zSwxmLyYTFF1L-21">
          <mxGeometry relative="1" as="geometry">
            <Array as="points">
              <mxPoint x="60" y="585" />
            </Array>
          </mxGeometry>
        </mxCell>
        <mxCell id="xLrs-v6zSwxmLyYTFF1L-15" value="기다린다" style="whiteSpace=wrap;html=1;aspect=fixed;" vertex="1" parent="WIyWlLk6GJQsqaUBKTNV-1">
          <mxGeometry x="20" y="405" width="80" height="80" as="geometry" />
        </mxCell>
        <mxCell id="xLrs-v6zSwxmLyYTFF1L-18" value="YES" style="text;html=1;strokeColor=none;fillColor=none;align=center;verticalAlign=middle;whiteSpace=wrap;rounded=0;" vertex="1" parent="WIyWlLk6GJQsqaUBKTNV-1">
          <mxGeometry x="100" y="440" width="60" height="30" as="geometry" />
        </mxCell>
        <mxCell id="xLrs-v6zSwxmLyYTFF1L-20" value="NO" style="text;html=1;strokeColor=none;fillColor=none;align=center;verticalAlign=middle;whiteSpace=wrap;rounded=0;" vertex="1" parent="WIyWlLk6GJQsqaUBKTNV-1">
          <mxGeometry x="285" y="440" width="60" height="30" as="geometry" />
        </mxCell>
        <mxCell id="xLrs-v6zSwxmLyYTFF1L-36" value="" style="edgeStyle=orthogonalEdgeStyle;rounded=0;orthogonalLoop=1;jettySize=auto;html=1;" edge="1" parent="WIyWlLk6GJQsqaUBKTNV-1" source="xLrs-v6zSwxmLyYTFF1L-21" target="xLrs-v6zSwxmLyYTFF1L-33">
          <mxGeometry relative="1" as="geometry" />
        </mxCell>
        <mxCell id="xLrs-v6zSwxmLyYTFF1L-21" value="버스를 탄다" style="whiteSpace=wrap;html=1;aspect=fixed;" vertex="1" parent="WIyWlLk6GJQsqaUBKTNV-1">
          <mxGeometry x="180" y="545" width="80" height="80" as="geometry" />
        </mxCell>
        <mxCell id="xLrs-v6zSwxmLyYTFF1L-37" value="" style="edgeStyle=orthogonalEdgeStyle;rounded=0;orthogonalLoop=1;jettySize=auto;html=1;" edge="1" parent="WIyWlLk6GJQsqaUBKTNV-1" source="xLrs-v6zSwxmLyYTFF1L-33" target="xLrs-v6zSwxmLyYTFF1L-34">
          <mxGeometry relative="1" as="geometry" />
        </mxCell>
        <mxCell id="xLrs-v6zSwxmLyYTFF1L-33" value="10 정거장 지나서 &lt;br&gt;하차한다" style="rounded=0;whiteSpace=wrap;html=1;" vertex="1" parent="WIyWlLk6GJQsqaUBKTNV-1">
          <mxGeometry x="160" y="680" width="120" height="60" as="geometry" />
        </mxCell>
        <mxCell id="xLrs-v6zSwxmLyYTFF1L-38" value="" style="edgeStyle=orthogonalEdgeStyle;rounded=0;orthogonalLoop=1;jettySize=auto;html=1;" edge="1" parent="WIyWlLk6GJQsqaUBKTNV-1" source="xLrs-v6zSwxmLyYTFF1L-34" target="xLrs-v6zSwxmLyYTFF1L-35">
          <mxGeometry relative="1" as="geometry" />
        </mxCell>
        <mxCell id="xLrs-v6zSwxmLyYTFF1L-34" value="회사까지 걸어간다" style="rounded=0;whiteSpace=wrap;html=1;" vertex="1" parent="WIyWlLk6GJQsqaUBKTNV-1">
          <mxGeometry x="160" y="790" width="120" height="60" as="geometry" />
        </mxCell>
        <mxCell id="xLrs-v6zSwxmLyYTFF1L-39" value="" style="edgeStyle=orthogonalEdgeStyle;rounded=0;orthogonalLoop=1;jettySize=auto;html=1;" edge="1" parent="WIyWlLk6GJQsqaUBKTNV-1" source="xLrs-v6zSwxmLyYTFF1L-35" target="WIyWlLk6GJQsqaUBKTNV-11">
          <mxGeometry relative="1" as="geometry" />
        </mxCell>
        <mxCell id="xLrs-v6zSwxmLyYTFF1L-35" value="출근을 찍는다" style="rounded=0;whiteSpace=wrap;html=1;" vertex="1" parent="WIyWlLk6GJQsqaUBKTNV-1">
          <mxGeometry x="160" y="900" width="120" height="60" as="geometry" />
        </mxCell>
      </root>
    </mxGraphModel>
  </diagram>
</mxfile>
